<svg width="248" height="54" viewBox="0 0 248 54" fill="none" xmlns="http://www.w3.org/2000/svg">
<path d="M64.0031 42.0622H60.5879V40.8223H68.8424V42.0622H65.4202V50.8056H64.0031V42.0622Z" fill="#231F20"/>
<path d="M76.2123 47.4827H70.0834C70.1702 48.131 70.5021 48.7214 71.0107 49.1326C71.5194 49.5437 72.1663 49.7444 72.8184 49.6933C73.2265 49.7072 73.6328 49.6327 74.0095 49.4749C74.3862 49.3172 74.7243 49.0799 75.0007 48.7793L75.7588 49.665C75.3811 50.0745 74.9184 50.3964 74.4031 50.6082C73.8878 50.8199 73.3324 50.9164 72.7759 50.8907C70.3385 50.8907 68.7159 49.2753 68.7159 47.0221C68.6954 46.5162 68.779 46.0114 68.9615 45.5391C69.1439 45.0668 69.4215 44.637 69.7768 44.2763C70.1322 43.9156 70.5579 43.6317 71.0274 43.4422C71.497 43.2527 72.0005 43.1617 72.5066 43.1747C73.0142 43.1607 73.5191 43.2529 73.9889 43.4456C74.4587 43.6382 74.883 43.9269 75.2346 44.2932C75.5862 44.6595 75.8574 45.0953 76.0306 45.5725C76.2039 46.0498 76.2754 46.5581 76.2407 47.0646C76.2407 47.1851 76.2265 47.3551 76.2123 47.4827ZM70.0834 46.4978H74.9299C74.8651 45.9003 74.582 45.3478 74.1347 44.9463C73.6874 44.5449 73.1076 44.3228 72.5066 44.3228C71.9056 44.3228 71.3258 44.5449 70.8786 44.9463C70.4313 45.3478 70.1481 45.9003 70.0834 46.4978V46.4978Z" fill="#231F20"/>
<path d="M77.4404 47.0225C77.4298 46.5022 77.5268 45.9854 77.7254 45.5044C77.924 45.0234 78.2199 44.5886 78.5944 44.2274C78.969 43.8661 79.4142 43.5861 79.902 43.4051C80.3899 43.224 80.9099 43.1457 81.4295 43.1751C82.0416 43.138 82.6523 43.2689 83.1955 43.5536C83.7387 43.8383 84.1938 44.266 84.5116 44.7906L83.4701 45.4566C83.2512 45.113 82.9466 44.8324 82.5863 44.6423C82.226 44.4522 81.8224 44.3592 81.4153 44.3726C80.7334 44.4078 80.0911 44.7034 79.6209 45.1985C79.1507 45.6936 78.8885 46.3503 78.8885 47.0331C78.8885 47.7159 79.1507 48.3726 79.6209 48.8677C80.0911 49.3628 80.7334 49.6585 81.4153 49.6937C81.8221 49.7049 82.2249 49.6111 82.5849 49.4212C82.9448 49.2313 83.2497 48.9517 83.4701 48.6096L84.5116 49.2615C84.1945 49.7876 83.7399 50.2173 83.1969 50.5044C82.6538 50.7916 82.0428 50.9252 81.4295 50.8911C80.9086 50.9186 80.3877 50.8382 79.8993 50.6551C79.4109 50.4719 78.9656 50.19 78.5911 49.8269C78.2167 49.4637 77.9212 49.0273 77.7232 48.5447C77.5252 48.0622 77.4289 47.544 77.4404 47.0225V47.0225Z" fill="#231F20"/>
<path d="M93.3521 46.4556V50.8061H91.9846V46.6115C91.9846 45.1307 91.2406 44.4008 89.944 44.4008C88.4915 44.4008 87.5491 45.2724 87.5491 46.9091V50.8061H86.1816V40.2275H87.5491V44.3158C87.8762 43.9343 88.2865 43.6331 88.7484 43.4353C89.2103 43.2375 89.7115 43.1485 90.2132 43.1751C92.0555 43.1751 93.3521 44.2308 93.3521 46.4556Z" fill="#231F20"/>
<path d="M103.059 46.4554V50.8059H101.692V46.6113C101.692 45.1305 100.983 44.4006 99.651 44.4006C98.2339 44.4006 97.2562 45.2722 97.2562 46.9089V50.8059H95.8887V43.2812H97.1995V44.4219C97.5237 44.0178 97.9398 43.6971 98.413 43.4863C98.8863 43.2756 99.403 43.181 99.9203 43.2103C101.762 43.1749 103.059 44.2306 103.059 46.4554Z" fill="#231F20"/>
<path d="M104.945 47.0221C104.932 46.2417 105.152 45.4752 105.576 44.8202C106.001 44.1652 106.61 43.6513 107.328 43.3438C108.045 43.0364 108.838 42.9494 109.605 43.0938C110.372 43.2383 111.078 43.6077 111.635 44.155C112.191 44.7024 112.572 45.4029 112.729 46.1674C112.886 46.9319 112.812 47.7258 112.516 48.4481C112.22 49.1703 111.717 49.7883 111.069 50.2233C110.421 50.6583 109.658 50.8906 108.877 50.8907C108.36 50.9143 107.844 50.8309 107.36 50.6457C106.876 50.4605 106.436 50.1774 106.067 49.8143C105.698 49.4512 105.408 49.0157 105.215 48.5353C105.022 48.0548 104.93 47.5397 104.945 47.0221ZM111.414 47.0221C111.389 46.5249 111.219 46.0459 110.924 45.6446C110.63 45.2433 110.224 44.9372 109.757 44.7643C109.29 44.5914 108.783 44.5593 108.298 44.6719C107.813 44.7846 107.372 45.037 107.029 45.398C106.686 45.759 106.457 46.2127 106.369 46.7028C106.282 47.1928 106.34 47.6978 106.537 48.1551C106.734 48.6124 107.06 49.0018 107.476 49.2753C107.892 49.5487 108.38 49.694 108.877 49.6933C109.225 49.7022 109.57 49.6382 109.891 49.5053C110.211 49.3724 110.501 49.1737 110.74 48.9219C110.979 48.67 111.162 48.3708 111.279 48.0436C111.395 47.7163 111.441 47.3683 111.414 47.0221V47.0221Z" fill="#231F20"/>
<path d="M114.693 40.2275H116.061V50.8061H114.693V40.2275Z" fill="#231F20"/>
<path d="M117.974 47.0221C117.962 46.2417 118.181 45.4752 118.606 44.8202C119.03 44.1652 119.64 43.6513 120.357 43.3438C121.074 43.0364 121.867 42.9494 122.634 43.0938C123.401 43.2383 124.108 43.6077 124.664 44.155C125.22 44.7024 125.601 45.4029 125.758 46.1674C125.915 46.9319 125.841 47.7258 125.545 48.4481C125.25 49.1703 124.746 49.7883 124.098 50.2233C123.45 50.6583 122.687 50.8906 121.907 50.8907C121.389 50.9143 120.873 50.8309 120.389 50.6457C119.906 50.4605 119.466 50.1774 119.096 49.8143C118.727 49.4512 118.437 49.0157 118.244 48.5353C118.051 48.0548 117.959 47.5397 117.974 47.0221V47.0221ZM124.45 47.0221C124.427 46.5231 124.257 46.042 123.963 45.6385C123.668 45.2351 123.262 44.927 122.793 44.7525C122.325 44.578 121.816 44.5447 121.33 44.6569C120.843 44.7691 120.4 45.0217 120.055 45.3835C119.711 45.7452 119.48 46.2002 119.392 46.6919C119.304 47.1836 119.362 47.6904 119.559 48.1493C119.756 48.6083 120.084 48.9993 120.501 49.2738C120.918 49.5482 121.407 49.6941 121.907 49.6933C122.254 49.7033 122.6 49.64 122.922 49.5075C123.244 49.3751 123.534 49.1765 123.774 48.9245C124.014 48.6726 124.198 48.373 124.314 48.0453C124.431 47.7175 124.477 47.3689 124.45 47.0221V47.0221Z" fill="#231F20"/>
<path d="M134.957 43.2816V49.8143C134.957 52.4784 133.597 53.69 131.032 53.69C129.735 53.7451 128.46 53.3467 127.425 52.5635L128.084 51.5077C128.91 52.1609 129.936 52.5088 130.989 52.4926C132.775 52.4926 133.582 51.6636 133.582 49.956V49.3538C133.245 49.7392 132.825 50.0442 132.354 50.2464C131.884 50.4487 131.374 50.5432 130.862 50.5229C130.362 50.554 129.862 50.4825 129.391 50.3128C128.921 50.1431 128.49 49.8789 128.125 49.5363C127.761 49.1938 127.47 48.7802 127.272 48.3211C127.073 47.862 126.971 47.367 126.971 46.8668C126.971 46.3665 127.073 45.8716 127.272 45.4125C127.47 44.9534 127.761 44.5398 128.125 44.1972C128.49 43.8547 128.921 43.5904 129.391 43.4208C129.862 43.2511 130.362 43.1796 130.862 43.2107C131.392 43.1897 131.92 43.2906 132.405 43.5056C132.89 43.7205 133.32 44.0438 133.66 44.4506V43.2816H134.957ZM133.618 46.8243C133.646 46.3032 133.518 45.7855 133.248 45.3384C132.979 44.8912 132.582 44.535 132.109 44.316C131.635 44.0969 131.107 44.025 130.592 44.1096C130.077 44.1942 129.599 44.4314 129.22 44.7905C128.841 45.1496 128.579 45.6141 128.467 46.1238C128.356 46.6336 128.399 47.1651 128.593 47.6498C128.786 48.1344 129.121 48.5498 129.553 48.8423C129.986 49.1347 130.496 49.2907 131.017 49.29C131.354 49.3158 131.692 49.2708 132.011 49.1579C132.329 49.0449 132.62 48.8665 132.865 48.6342C133.11 48.4019 133.303 48.1208 133.433 47.809C133.563 47.4973 133.626 47.1618 133.618 46.8243V46.8243Z" fill="#231F20"/>
<path d="M137.326 40.9076C137.326 40.787 137.35 40.6676 137.397 40.5566C137.444 40.4455 137.513 40.345 137.6 40.2611C137.686 40.1771 137.789 40.1115 137.901 40.0679C138.014 40.0244 138.134 40.004 138.254 40.0078C138.429 40.0147 138.598 40.0727 138.74 40.1746C138.882 40.2765 138.99 40.4179 139.053 40.5811C139.115 40.7443 139.128 40.9222 139.091 41.0928C139.053 41.2634 138.966 41.4192 138.84 41.5408C138.715 41.6624 138.556 41.7446 138.385 41.7771C138.213 41.8095 138.036 41.7909 137.874 41.7235C137.713 41.6561 137.575 41.5428 137.478 41.3978C137.38 41.2528 137.328 41.0823 137.326 40.9076V40.9076ZM137.567 43.2458H138.935V50.806H137.567V43.2458Z" fill="#231F20"/>
<path d="M148.343 47.4827H142.214C142.301 48.131 142.633 48.7214 143.142 49.1326C143.65 49.5437 144.297 49.7444 144.949 49.6933C145.357 49.7072 145.764 49.6327 146.14 49.4749C146.517 49.3172 146.855 49.0799 147.132 48.7793L147.89 49.665C147.512 50.0745 147.049 50.3964 146.534 50.6082C146.019 50.8199 145.463 50.9164 144.907 50.8907C142.469 50.8907 140.847 49.2753 140.847 47.0221C140.826 46.5162 140.91 46.0114 141.092 45.5391C141.275 45.0668 141.552 44.637 141.908 44.2763C142.263 43.9156 142.689 43.6317 143.158 43.4422C143.628 43.2527 144.131 43.1617 144.638 43.1747C145.145 43.1607 145.65 43.2529 146.12 43.4456C146.59 43.6382 147.014 43.9269 147.365 44.2932C147.717 44.6595 147.988 45.0953 148.162 45.5725C148.335 46.0498 148.406 46.5581 148.372 47.0646C148.372 47.1851 148.357 47.3551 148.343 47.4827ZM142.214 46.4978H147.061C146.996 45.9003 146.713 45.3478 146.266 44.9463C145.818 44.5449 145.238 44.3228 144.638 44.3228C144.037 44.3228 143.457 44.5449 143.009 44.9463C142.562 45.3478 142.279 45.9003 142.214 46.4978V46.4978Z" fill="#231F20"/>
<path d="M149.314 50.0051L149.888 48.921C150.677 49.4341 151.597 49.7073 152.538 49.7075C153.807 49.7075 154.331 49.3178 154.331 48.6801C154.331 46.9796 149.555 48.4534 149.555 45.4421C149.555 44.0887 150.767 43.1747 152.708 43.1747C153.671 43.1628 154.62 43.4074 155.458 43.8833L154.877 44.9673C154.224 44.5562 153.465 44.3467 152.694 44.3651C151.497 44.3651 150.916 44.8115 150.916 45.4066C150.916 47.1922 155.705 45.7326 155.705 48.673C155.705 50.0405 154.444 50.912 152.439 50.912C151.33 50.9323 150.24 50.6161 149.314 50.0051V50.0051Z" fill="#231F20"/>
<path d="M169.074 47.0225C169.099 47.5331 169.019 48.0436 168.837 48.5214C168.655 48.9992 168.375 49.4338 168.016 49.7977C167.657 50.1616 167.226 50.4468 166.75 50.635C166.275 50.8232 165.765 50.9104 165.254 50.8911C164.735 50.9124 164.219 50.8067 163.749 50.5832C163.28 50.3598 162.873 50.0252 162.562 49.6086V50.8061H161.244V40.2275H162.619V44.3867C162.932 43.9924 163.334 43.6774 163.792 43.4669C164.25 43.2565 164.751 43.1565 165.254 43.1751C165.764 43.1527 166.273 43.2371 166.749 43.4229C167.224 43.6087 167.655 43.8918 168.015 44.2541C168.375 44.6163 168.654 45.0497 168.837 45.5264C169.019 46.0032 169.1 46.5127 169.074 47.0225ZM167.692 47.0225C167.667 46.5259 167.497 46.0475 167.203 45.6464C166.909 45.2454 166.504 44.9393 166.038 44.7659C165.572 44.5926 165.066 44.5596 164.581 44.6712C164.096 44.7827 163.655 45.0337 163.312 45.3933C162.968 45.7529 162.738 46.2053 162.649 46.6945C162.56 47.1836 162.616 47.6882 162.811 48.1457C163.005 48.6033 163.33 48.9937 163.744 49.2689C164.158 49.544 164.644 49.6916 165.141 49.6937C165.489 49.7036 165.835 49.6403 166.157 49.5079C166.479 49.3755 166.77 49.177 167.01 48.9252C167.251 48.6734 167.436 48.374 167.553 48.0462C167.671 47.7184 167.718 47.3696 167.692 47.0225V47.0225Z" fill="#231F20"/>
<path d="M177.444 43.2808L173.78 51.592C173.114 53.1933 172.243 53.7176 171.088 53.7176C170.375 53.7342 169.681 53.4812 169.146 53.0091L169.735 51.9817C170.096 52.3365 170.582 52.535 171.088 52.5343C171.74 52.5343 172.158 52.2367 172.505 51.3652L172.746 50.8409L169.43 43.2808H170.847L173.483 49.3246L176.09 43.2808H177.444Z" fill="#231F20"/>
<path d="M189.68 45.7541H191.047V49.6582C189.972 50.5038 188.638 50.9518 187.271 50.9265C186.58 50.9623 185.89 50.8564 185.242 50.6151C184.595 50.3738 184.003 50.0024 183.505 49.5237C183.006 49.045 182.611 48.4692 182.343 47.8318C182.076 47.1945 181.942 46.509 181.95 45.8179C181.95 42.8703 184.203 40.7164 187.299 40.7164C188.01 40.6864 188.72 40.8079 189.381 41.073C190.042 41.3381 190.639 41.7406 191.132 42.2539L190.247 43.1396C189.869 42.7605 189.417 42.4625 188.92 42.2639C188.423 42.0653 187.891 41.9703 187.356 41.9847C186.838 41.9624 186.321 42.0452 185.836 42.228C185.351 42.4107 184.908 42.6898 184.534 43.0482C184.16 43.4067 183.862 43.8372 183.659 44.3138C183.455 44.7904 183.35 45.3032 183.35 45.8214C183.35 46.3396 183.455 46.8525 183.659 47.3291C183.862 47.8057 184.16 48.2361 184.534 48.5946C184.908 48.9531 185.351 49.2321 185.836 49.4149C186.321 49.5977 186.838 49.6804 187.356 49.6582C188.182 49.6782 188.995 49.4539 189.694 49.0134L189.68 45.7541Z" fill="#231F20"/>
<path d="M200.372 47.4827H194.244C194.33 48.131 194.662 48.7214 195.171 49.1326C195.68 49.5437 196.326 49.7444 196.979 49.6933C197.387 49.7072 197.793 49.6327 198.17 49.4749C198.546 49.3172 198.884 49.0799 199.161 48.7793L199.919 49.665C199.541 50.0745 199.079 50.3964 198.563 50.6082C198.048 50.8199 197.493 50.9164 196.936 50.8907C194.499 50.8907 192.876 49.2753 192.876 47.0221C192.856 46.5162 192.939 46.0114 193.122 45.5391C193.304 45.0668 193.582 44.637 193.937 44.2763C194.292 43.9156 194.718 43.6317 195.188 43.4422C195.657 43.2527 196.161 43.1617 196.667 43.1747C197.174 43.1607 197.679 43.2529 198.149 43.4456C198.619 43.6382 199.043 43.9269 199.395 44.2932C199.746 44.6595 200.018 45.0953 200.191 45.5725C200.364 46.0498 200.436 46.5581 200.401 47.0646C200.401 47.1851 200.387 47.3551 200.372 47.4827ZM194.244 46.4978H199.111C199.047 45.9003 198.763 45.3478 198.316 44.9463C197.869 44.5449 197.289 44.3228 196.688 44.3228C196.087 44.3228 195.507 44.5449 195.06 44.9463C194.613 45.3478 194.33 45.9003 194.265 46.4978H194.244Z" fill="#231F20"/>
<path d="M209.1 47.4826H202.964C203.052 48.1315 203.386 48.722 203.896 49.133C204.405 49.5441 205.053 49.7445 205.706 49.6933C206.114 49.7072 206.52 49.6327 206.897 49.4749C207.274 49.3171 207.612 49.0799 207.888 48.7793L208.639 49.665C208.263 50.0747 207.802 50.3969 207.288 50.6087C206.774 50.8205 206.219 50.9168 205.664 50.8907C203.226 50.8907 201.597 49.2753 201.597 47.0221C201.577 46.5164 201.661 46.0121 201.844 45.5403C202.027 45.0684 202.305 44.639 202.66 44.2785C203.015 43.9181 203.44 43.6342 203.909 43.4443C204.378 43.2545 204.881 43.1627 205.387 43.1747C205.895 43.1608 206.4 43.253 206.87 43.4456C207.34 43.6381 207.765 43.9267 208.117 44.2929C208.47 44.6591 208.741 45.0948 208.915 45.572C209.09 46.0493 209.162 46.5577 209.128 47.0646C209.128 47.1851 209.114 47.3551 209.1 47.4826ZM202.964 46.4978H207.818C207.746 45.9047 207.459 45.3584 207.012 44.9621C206.565 44.5659 205.988 44.347 205.391 44.347C204.793 44.347 204.217 44.5659 203.769 44.9621C203.322 45.3584 203.036 45.9047 202.964 46.4978V46.4978Z" fill="#231F20"/>
<path d="M213.989 47.2846L212.416 48.7371V50.8061H211.049V40.2275H212.416V47.0083L216.54 43.2459H218.191L215.017 46.3706L218.51 50.8061H216.823L213.989 47.2846Z" fill="#231F20"/>
<path d="M218.609 50.0051L219.176 48.921C219.968 49.4332 220.89 49.7063 221.833 49.7075C223.102 49.7075 223.626 49.3178 223.626 48.6801C223.626 46.9796 218.85 48.4534 218.85 45.4421C218.85 44.0887 220.062 43.1747 222.003 43.1747C222.966 43.1628 223.915 43.4074 224.752 43.8833L224.171 44.9673C223.519 44.557 222.76 44.3476 221.989 44.3651C220.792 44.3651 220.204 44.8115 220.204 45.4066C220.204 47.1922 224.993 45.7326 224.993 48.673C224.993 50.0405 223.739 50.912 221.734 50.912C220.625 50.9332 219.535 50.6169 218.609 50.0051V50.0051Z" fill="#231F20"/>
<path d="M63.729 37.5205C61.4758 37.5205 60.5547 36.6136 60.5547 34.3887V12.7144C60.5547 10.5888 61.49 9.71729 63.7715 9.71729H89.9096V15.5769H68.2353C68.0018 15.5664 67.7687 15.6053 67.5513 15.6912C67.3339 15.777 67.1372 15.9079 66.9739 16.0752C66.8107 16.2424 66.6846 16.4423 66.6041 16.6618C66.5235 16.8812 66.4902 17.1151 66.5065 17.3483V21.7696H89.775V25.4682H66.5065V30.1091C66.4874 30.345 66.5183 30.5821 66.5973 30.8052C66.6762 31.0282 66.8014 31.232 66.9647 31.4032C67.1279 31.5745 67.3255 31.7093 67.5444 31.7989C67.7634 31.8885 67.9988 31.9308 68.2353 31.923H89.9096V37.5205H63.729Z" fill="#F76A2A"/>
<path d="M96.9712 37.5205C94.718 37.5205 93.7969 36.6136 93.7969 34.3887V12.7144C93.7969 10.5888 94.7322 9.71729 97.0207 9.71729H123.152V15.5769H101.477C101.244 15.5664 101.011 15.6053 100.794 15.6912C100.576 15.777 100.379 15.9079 100.216 16.0752C100.053 16.2424 99.9268 16.4423 99.8462 16.6618C99.7657 16.8812 99.7324 17.1151 99.7486 17.3483V21.7696H123.017V25.4682H99.7486V30.1091C99.7295 30.345 99.7605 30.5821 99.8395 30.8052C99.9184 31.0282 100.044 31.232 100.207 31.4032C100.37 31.5745 100.568 31.7093 100.787 31.7989C101.006 31.8885 101.241 31.9308 101.477 31.923H123.152V37.5205H96.9712Z" fill="#F76A2A"/>
<path d="M150.112 37.5205C149.754 37.1626 149.376 36.8267 148.978 36.5144L133.007 23.1583V37.5205H126.971V9.71729H133.007V23.0591L148.269 10.7234C148.651 10.4157 149.009 10.0794 149.339 9.71729H157.303L142.19 21.4153C141.995 21.5641 141.837 21.7559 141.728 21.9759C141.619 22.1959 141.562 22.4381 141.562 22.6836C141.562 22.9291 141.619 23.1713 141.728 23.3913C141.837 23.6113 141.995 23.8032 142.19 23.9519L158.94 37.5134L150.112 37.5205Z" fill="#F76A2A"/>
<path d="M172.822 37.5205V14.1386C172.822 11.0635 174.168 9.68896 177.187 9.68896H202.17V15.5486H181.027C180.717 15.5272 180.407 15.5739 180.117 15.6854C179.827 15.797 179.566 15.9706 179.35 16.1941C179.135 16.4177 178.971 16.6857 178.87 16.9794C178.769 17.273 178.734 17.5852 178.767 17.8939V22.1451H202.035V27.523H178.767V37.4993L172.822 37.5205Z" fill="#F76A2A"/>
<path d="M218.951 37.5205V24.2353L205.758 9.71729H212.843C213.007 9.9727 213.197 10.2102 213.41 10.4258L220.921 18.5953C221.088 18.7853 221.294 18.9375 221.525 19.0417C221.756 19.1459 222.006 19.1998 222.26 19.1998C222.513 19.1998 222.764 19.1459 222.994 19.0417C223.225 18.9375 223.431 18.7853 223.599 18.5953H223.634L231.081 10.44C231.299 10.221 231.498 9.98397 231.676 9.73145H238.585L224.945 24.7809V37.5347L218.951 37.5205Z" fill="#F76A2A"/>
<path d="M165.866 7.51394C166.357 7.53139 166.847 7.44845 167.305 7.2702C167.763 7.09195 168.18 6.82214 168.53 6.47726C168.88 6.13238 169.156 5.7197 169.342 5.26444C169.527 4.80918 169.617 4.32092 169.607 3.82952C169.608 3.34711 169.51 2.86963 169.32 2.42634C169.13 1.98306 168.851 1.58331 168.5 1.25161C168.15 0.919904 167.736 0.663234 167.283 0.497332C166.83 0.33143 166.348 0.259794 165.866 0.28681C165.381 0.272604 164.897 0.355882 164.444 0.531734C163.991 0.707585 163.578 0.972442 163.229 1.31064C162.881 1.64883 162.603 2.05351 162.414 2.50076C162.224 2.948 162.126 3.42873 162.125 3.91455C162.124 4.39968 162.221 4.88006 162.41 5.32672C162.599 5.77338 162.877 6.17706 163.227 6.51341C163.576 6.84977 163.99 7.11183 164.444 7.28379C164.898 7.45574 165.381 7.53404 165.866 7.51394V7.51394Z" fill="#F76A2A"/>
<path d="M169.04 9.78174H162.691V37.9321H169.04V9.78174Z" fill="#F76A2A"/>
<path fill-rule="evenodd" clip-rule="evenodd" d="M53.15 11.9211C50.8988 8.66771 47.7579 6.13172 44.1032 4.61659C40.4485 3.10146 36.4346 2.67135 32.5418 3.3777C28.649 4.08405 25.0422 5.89696 22.1528 8.59954C19.2633 11.3021 17.2137 14.7799 16.2491 18.6169H6.0744C5.70887 18.0018 5.15148 17.5237 4.48787 17.2561C3.82426 16.9885 3.09114 16.9462 2.40117 17.1358C1.7112 17.3253 1.10255 17.7362 0.668751 18.3052C0.234951 18.8742 0 19.57 0 20.2855C0 21.001 0.234951 21.6968 0.668751 22.2658C1.10255 22.8348 1.7112 23.2457 2.40117 23.4352C3.09114 23.6247 3.82426 23.5825 4.48787 23.3149C5.15148 23.0473 5.70887 22.5692 6.0744 21.9541H19.0478C19.4553 17.6849 21.4408 13.7213 24.6158 10.8385C27.7909 7.95561 31.9272 6.36087 36.2158 6.36616C37.1948 6.33739 38.174 6.4182 39.135 6.60708L39.468 6.67084C43.8163 7.50337 47.6763 9.98024 50.2449 13.5862V13.5862C50.9093 14.4841 51.5038 15.4316 52.0234 16.4204L54.8576 14.812C54.3669 13.8041 53.7959 12.8373 53.15 11.9211V11.9211ZM3.26857 21.7982C2.97008 21.7982 2.67829 21.7097 2.43011 21.5439C2.18192 21.378 1.98848 21.1423 1.87426 20.8666C1.76003 20.5908 1.73014 20.2874 1.78837 19.9946C1.84661 19.7018 1.99035 19.4329 2.20141 19.2219C2.41248 19.0108 2.68139 18.8671 2.97414 18.8088C3.2669 18.7506 3.57035 18.7805 3.84612 18.8947C4.12189 19.0089 4.35759 19.2024 4.52342 19.4506C4.68926 19.6988 4.77777 19.9905 4.77777 20.289C4.77591 20.6887 4.6163 21.0715 4.33368 21.3541C4.05105 21.6368 3.66826 21.7964 3.26857 21.7982Z" fill="#231F20"/>
<path fill-rule="evenodd" clip-rule="evenodd" d="M50.0239 25.2914C49.8844 26.4334 49.606 27.5541 49.1949 28.6286C48.3004 30.943 46.803 32.976 44.8581 34.5167C42.9132 36.0574 40.5916 37.0499 38.1339 37.3911C35.6763 37.7322 33.1721 37.4097 30.881 36.457C28.59 35.5044 26.5955 33.9561 25.1044 31.9729C24.419 31.0917 23.8432 30.1305 23.3897 29.1104C23.326 28.9616 23.2622 28.8128 23.2055 28.6569C22.791 27.5835 22.5125 26.4624 22.3765 25.3197C22.2443 24.2112 22.2443 23.091 22.3765 21.9825C22.5874 18.8574 23.8674 15.9001 26.0015 13.6075C28.1356 11.3149 30.9937 9.82663 34.0957 9.39275C37.1976 8.95887 40.3544 9.60583 43.0356 11.2249C45.7169 12.844 47.7591 15.3366 48.8193 18.2839L48.1887 18.6452L46.0631 19.8781C45.9002 19.4557 45.7109 19.0439 45.4963 18.6452C45.1818 18.0584 44.8117 17.5032 44.3909 16.9872C43.4006 15.7663 42.1499 14.7821 40.7303 14.1066C39.3107 13.4312 37.7581 13.0815 36.186 13.0832H35.8247H35.6688H35.4775C33.64 13.205 31.8665 13.8059 30.3335 14.8262V14.8262L30.2343 14.897L30.1776 14.9396L30.1067 14.9821L30.0217 15.0458H29.9792C28.9454 15.8037 28.0572 16.7422 27.3576 17.8162V17.8162L27.2867 17.9225V17.9721V18.0288C27.1734 18.2059 27.0742 18.3831 26.9679 18.5673C26.4191 19.5922 26.0432 20.7006 25.8555 21.8479V21.9045C25.6783 23.0099 25.6783 24.1364 25.8555 25.2418V25.2772V25.4118C26.0531 26.5064 26.4213 27.5632 26.9466 28.5436C27.0529 28.742 27.1663 28.9262 27.2796 29.1104L27.3647 29.245L27.4284 29.3442V29.4009C28.0745 30.3489 28.8743 31.1822 29.795 31.8667V31.8667L29.9013 31.9446L29.9863 32.0084C31.5784 33.144 33.4553 33.8138 35.4066 33.9427H36.1152C38.6279 33.9323 41.0557 33.032 42.9677 31.4015C44.8796 29.771 46.152 27.5159 46.5591 25.0363L50.0239 25.2914Z" fill="#F76A2A"/>
<path fill-rule="evenodd" clip-rule="evenodd" d="M56.7338 21.9542H39.1336C38.7681 21.3391 38.2107 20.861 37.5471 20.5934C36.8834 20.3259 36.1503 20.2836 35.4604 20.4731C34.7704 20.6627 34.1617 21.0735 33.7279 21.6425C33.2941 22.2116 33.0592 22.9073 33.0592 23.6228C33.0592 24.3384 33.2941 25.0341 33.7279 25.6031C34.1617 26.1722 34.7704 26.583 35.4604 26.7725C36.1503 26.9621 36.8834 26.9198 37.5471 26.6522C38.2107 26.3847 38.7681 25.9066 39.1336 25.2914H53.3824C53.0348 28.7786 51.6335 32.0773 49.365 34.7485C47.0965 37.4197 44.0683 39.3367 40.6835 40.2445C37.2986 41.1522 33.7175 41.0077 30.4169 39.8301C27.1162 38.6524 24.2523 36.4976 22.2065 33.6523C21.5576 32.7458 20.9999 31.7775 20.5414 30.7614C20.2213 30.0733 19.9513 29.3629 19.7337 28.6358C19.4049 27.5477 19.1842 26.4299 19.0747 25.2985H10.8556C10.4901 24.6834 9.93273 24.2053 9.26912 23.9378C8.60551 23.6702 7.87239 23.6279 7.18242 23.8174C6.49245 24.007 5.8838 24.4178 5.45 24.9869C5.0162 25.5559 4.78125 26.2516 4.78125 26.9672C4.78125 27.6827 5.0162 28.3784 5.45 28.9474C5.8838 29.5165 6.49245 29.9273 7.18242 30.1169C7.87239 30.3064 8.60551 30.2641 9.26912 29.9965C9.93273 29.729 10.4901 29.2509 10.8556 28.6358H16.2477C16.572 29.9489 17.0278 31.2259 17.6081 32.4477C18.0888 33.4537 18.6479 34.4203 19.2802 35.3386C21.696 38.8296 25.1318 41.4886 29.1171 42.9514C33.1025 44.4142 37.4426 44.6094 41.5432 43.5101C45.6438 42.4109 49.3044 40.071 52.0237 36.8109C54.743 33.5508 56.3881 29.5298 56.7338 25.2985C56.7763 24.753 56.7975 24.1932 56.7975 23.6335C56.7975 23.0737 56.7763 22.5069 56.7338 21.9542ZM36.3278 25.1285C36.029 25.1285 35.7369 25.0398 35.4886 24.8736C35.2402 24.7075 35.0468 24.4714 34.9328 24.1952C34.8188 23.919 34.7893 23.6152 34.8481 23.3222C34.9069 23.0293 35.0513 22.7604 35.2631 22.5496C35.4749 22.3388 35.7445 22.1957 36.0377 22.1382C36.3309 22.0808 36.6346 22.1117 36.9102 22.227C37.1859 22.3423 37.4211 22.5369 37.5861 22.786C37.751 23.0351 37.8384 23.3276 37.837 23.6264C37.837 23.8242 37.7979 24.0201 37.7219 24.2028C37.646 24.3856 37.5347 24.5515 37.3945 24.691C37.2543 24.8306 37.0878 24.9411 36.9048 25.0162C36.7217 25.0912 36.5256 25.1294 36.3278 25.1285V25.1285ZM8.04982 28.4728C7.75043 28.4728 7.45781 28.3837 7.20919 28.2169C6.96056 28.0501 6.76717 27.8131 6.65359 27.5361C6.54002 27.2591 6.51139 26.9546 6.57137 26.6613C6.63135 26.368 6.77721 26.0991 6.9904 25.8889C7.2036 25.6787 7.4745 25.5367 7.76864 25.4809C8.06278 25.4251 8.36688 25.458 8.64225 25.5755C8.91762 25.693 9.15182 25.8897 9.31507 26.1407C9.47832 26.3917 9.56324 26.6855 9.55902 26.9849C9.55343 27.3814 9.39196 27.7599 9.10954 28.0383C8.82711 28.3168 8.44643 28.4728 8.04982 28.4728Z" fill="#231F20"/>
<path d="M244.158 11.44C245.299 11.44 245.894 12.0422 245.894 12.8145C245.896 13.0687 245.824 13.318 245.685 13.5311C245.546 13.7441 245.348 13.9114 245.114 14.012V14.012L246.22 15.592H245.235L244.25 14.1749H243.088V15.592H242.252V11.4116L244.158 11.44ZM244.158 12.1485H243.088V13.5231H244.158C244.732 13.5231 245.029 13.1688 245.029 12.8145C245.029 12.4603 244.732 12.106 244.158 12.106V12.1485Z" fill="#231F20"/>
<path d="M243.897 17.8304C243.086 17.8304 242.293 17.5898 241.618 17.139C240.944 16.6882 240.418 16.0475 240.107 15.2979C239.797 14.5483 239.715 13.7234 239.874 12.9276C240.032 12.1318 240.423 11.4008 240.997 10.8271C241.57 10.2533 242.301 9.86261 243.097 9.70432C243.893 9.54602 244.718 9.62727 245.467 9.93777C246.217 10.2483 246.858 10.7741 247.308 11.4487C247.759 12.1234 248 12.9166 248 13.7279C248.001 14.267 247.895 14.8008 247.689 15.299C247.484 15.7972 247.181 16.2498 246.8 16.6309C246.419 17.012 245.967 17.3142 245.468 17.52C244.97 17.7259 244.436 17.8313 243.897 17.8304ZM243.897 10.4049C243.238 10.4049 242.594 10.6004 242.047 10.9666C241.499 11.3329 241.072 11.8534 240.82 12.4623C240.568 13.0712 240.503 13.7412 240.632 14.3873C240.761 15.0335 241.079 15.6269 241.545 16.0923C242.012 16.5578 242.606 16.8744 243.252 17.0021C243.899 17.1298 244.568 17.0628 245.177 16.8097C245.785 16.5565 246.305 16.1286 246.67 15.58C247.035 15.0314 247.229 14.3869 247.228 13.7279C247.226 12.846 246.874 12.0008 246.25 11.3778C245.625 10.7548 244.779 10.4049 243.897 10.4049V10.4049Z" fill="#231F20"/>
</svg>
