<svg width="95" height="95" viewBox="0 0 95 95" fill="none" xmlns="http://www.w3.org/2000/svg">
<circle cx="47.2371" cy="47.6595" r="47.2371" fill="#FAF2EF"/>
<path d="M68.2363 62.4709C68.1314 62.7603 67.5592 63.0254 67.1857 63.0351C65.0687 63.0884 62.9502 63.061 60.8284 63.061H59.8542C60.3914 64.435 60.8713 65.6749 61.3577 66.9115C61.844 68.1481 62.3526 69.3993 62.8326 70.6489C63.1631 71.504 62.9994 71.8694 62.1651 72.2218C60.7558 72.8188 59.3456 73.4115 57.9342 73.9999H57.2985C57.0728 73.6168 56.7947 73.2579 56.6294 72.8506C55.6885 70.5196 54.7747 68.1772 53.7972 65.704C52.7673 66.8921 51.8027 68.0059 50.8395 69.1229C50.1243 69.9516 49.4112 70.7831 48.7003 71.6172C48.3665 72.01 47.9374 72.3705 47.4828 72.031C47.1904 71.8144 46.9743 71.2906 46.9727 70.8994C46.9441 62.0668 46.952 53.2358 46.9473 44.4031C46.9473 43.8972 46.9473 43.3055 47.5035 43.2199C47.8913 43.1617 48.4317 43.3815 48.7368 43.6563C53.7527 48.2494 58.7528 52.8602 63.7369 57.4888C65.1085 58.7562 66.4959 60.0074 67.8246 61.3184C68.1012 61.5932 68.3459 62.1767 68.2363 62.4709Z" fill="#F76A2A"/>
<path d="M65.4642 29C67.5695 29.8169 68.2958 31.3769 68.2495 33.6043C68.1485 38.5118 68.218 43.4236 68.218 48.3416C68.218 48.6216 68.3211 48.9732 68.1885 49.169C67.9043 49.59 67.5569 50.1185 67.1358 50.2343C66.4726 50.4153 66.041 49.9016 65.9252 49.23C65.8879 48.9171 65.8781 48.6015 65.8958 48.2868C65.8958 43.2341 65.8958 38.1813 65.8958 33.1285C65.8958 31.6885 65.5463 31.3411 64.0978 31.3411H32.2191C30.6738 31.3411 30.3369 31.6906 30.3369 33.2759C30.3369 42.2586 30.3369 51.2364 30.3369 60.2093C30.3369 61.8493 30.6779 62.1967 32.2822 62.1988C34.9124 62.1988 37.5427 62.1988 40.1729 62.1988C40.4529 62.1988 40.7351 62.1988 41.0151 62.2115C41.714 62.2557 42.1351 62.6178 42.1435 63.3336C42.152 64.0494 41.7225 64.4789 41.0382 64.481C37.7076 64.481 34.3749 64.5189 31.0485 64.4094C29.3642 64.3526 28.5453 63.0767 28 61.6325V31.9475C28.1878 31.2399 28.5593 30.5946 29.077 30.077C29.5946 29.5594 30.2399 29.1878 30.9475 29H65.4642Z" fill="#231F20"/>
</svg>
